<mxfile host="app.diagrams.net" agent="Mozilla/5.0 (Windows NT 10.0; Win64; x64; rv:142.0) Gecko/20100101 Firefox/142.0" version="28.2.2">
  <diagram name="Página-1" id="-nuC9hMmj40zK3rdnikh">
    <mxGraphModel dx="815" dy="457" grid="1" gridSize="10" guides="1" tooltips="1" connect="1" arrows="1" fold="1" page="1" pageScale="1" pageWidth="827" pageHeight="1169" math="0" shadow="0">
      <root>
        <mxCell id="0" />
        <mxCell id="1" parent="0" />
        <mxCell id="zdS7Bi_oB9-ug5V27CZl-1" value="&lt;div&gt;Usuario&amp;nbsp;&lt;/div&gt;&lt;div&gt;Registrado&lt;/div&gt;" style="shape=umlActor;verticalLabelPosition=bottom;verticalAlign=top;html=1;outlineConnect=0;" parent="1" vertex="1">
          <mxGeometry x="130" y="190" width="30" height="60" as="geometry" />
        </mxCell>
        <mxCell id="zdS7Bi_oB9-ug5V27CZl-2" value="" style="rounded=0;whiteSpace=wrap;html=1;" parent="1" vertex="1">
          <mxGeometry x="210" y="110" width="410" height="310" as="geometry" />
        </mxCell>
        <mxCell id="fI48gUcSMKQTvnjYPrtR-8" style="edgeStyle=orthogonalEdgeStyle;rounded=0;orthogonalLoop=1;jettySize=auto;html=1;exitX=0.5;exitY=1;exitDx=0;exitDy=0;entryX=0.28;entryY=0.064;entryDx=0;entryDy=0;dashed=1;entryPerimeter=0;" edge="1" parent="1" source="zdS7Bi_oB9-ug5V27CZl-3" target="fI48gUcSMKQTvnjYPrtR-7">
          <mxGeometry relative="1" as="geometry" />
        </mxCell>
        <mxCell id="fI48gUcSMKQTvnjYPrtR-9" value="&lt;font style=&quot;font-size: 9px;&quot;&gt;include&lt;/font&gt;" style="edgeLabel;html=1;align=center;verticalAlign=middle;resizable=0;points=[];" vertex="1" connectable="0" parent="fI48gUcSMKQTvnjYPrtR-8">
          <mxGeometry x="-0.2776" y="1" relative="1" as="geometry">
            <mxPoint x="5" y="1" as="offset" />
          </mxGeometry>
        </mxCell>
        <mxCell id="zdS7Bi_oB9-ug5V27CZl-3" value="Recuperar Contraseña" style="rounded=1;whiteSpace=wrap;html=1;arcSize=50;" parent="1" vertex="1">
          <mxGeometry x="251" y="120" width="120" height="40" as="geometry" />
        </mxCell>
        <mxCell id="zdS7Bi_oB9-ug5V27CZl-4" value="" style="endArrow=none;html=1;rounded=0;entryX=0.25;entryY=1;entryDx=0;entryDy=0;" parent="1" source="zdS7Bi_oB9-ug5V27CZl-1" target="zdS7Bi_oB9-ug5V27CZl-3" edge="1">
          <mxGeometry width="50" height="50" relative="1" as="geometry">
            <mxPoint x="380" y="370" as="sourcePoint" />
            <mxPoint x="430" y="320" as="targetPoint" />
          </mxGeometry>
        </mxCell>
        <mxCell id="fI48gUcSMKQTvnjYPrtR-2" style="rounded=0;orthogonalLoop=1;jettySize=auto;html=1;exitX=0.5;exitY=0;exitDx=0;exitDy=0;dashed=1;entryX=1;entryY=0.5;entryDx=0;entryDy=0;edgeStyle=orthogonalEdgeStyle;" edge="1" parent="1" source="zdS7Bi_oB9-ug5V27CZl-5" target="fI48gUcSMKQTvnjYPrtR-7">
          <mxGeometry relative="1" as="geometry" />
        </mxCell>
        <mxCell id="fI48gUcSMKQTvnjYPrtR-5" value="&lt;font style=&quot;font-size: 9px;&quot;&gt;extend&lt;/font&gt;" style="edgeLabel;html=1;align=center;verticalAlign=middle;resizable=0;points=[];" vertex="1" connectable="0" parent="fI48gUcSMKQTvnjYPrtR-2">
          <mxGeometry x="-0.0635" y="2" relative="1" as="geometry">
            <mxPoint x="2" y="8" as="offset" />
          </mxGeometry>
        </mxCell>
        <mxCell id="fI48gUcSMKQTvnjYPrtR-14" style="rounded=0;orthogonalLoop=1;jettySize=auto;html=1;exitX=0;exitY=0.5;exitDx=0;exitDy=0;entryX=0.75;entryY=0;entryDx=0;entryDy=0;dashed=1;edgeStyle=orthogonalEdgeStyle;" edge="1" parent="1" source="zdS7Bi_oB9-ug5V27CZl-5" target="fI48gUcSMKQTvnjYPrtR-10">
          <mxGeometry relative="1" as="geometry" />
        </mxCell>
        <mxCell id="fI48gUcSMKQTvnjYPrtR-15" value="&lt;font style=&quot;font-size: 9px;&quot;&gt;include&lt;/font&gt;" style="edgeLabel;html=1;align=center;verticalAlign=middle;resizable=0;points=[];" vertex="1" connectable="0" parent="fI48gUcSMKQTvnjYPrtR-14">
          <mxGeometry x="-0.1928" y="1" relative="1" as="geometry">
            <mxPoint as="offset" />
          </mxGeometry>
        </mxCell>
        <mxCell id="zdS7Bi_oB9-ug5V27CZl-5" value="Envió de enlace de restauración al correo" style="rounded=1;whiteSpace=wrap;html=1;arcSize=50;" parent="1" vertex="1">
          <mxGeometry x="414" y="265" width="162" height="40" as="geometry" />
        </mxCell>
        <mxCell id="fI48gUcSMKQTvnjYPrtR-3" style="rounded=0;orthogonalLoop=1;jettySize=auto;html=1;exitX=0.131;exitY=0.961;exitDx=0;exitDy=0;dashed=1;entryX=0.75;entryY=0;entryDx=0;entryDy=0;exitPerimeter=0;" edge="1" parent="1" source="fI48gUcSMKQTvnjYPrtR-1" target="fI48gUcSMKQTvnjYPrtR-7">
          <mxGeometry relative="1" as="geometry" />
        </mxCell>
        <mxCell id="fI48gUcSMKQTvnjYPrtR-4" value="&lt;font style=&quot;font-size: 9px;&quot;&gt;extend&lt;/font&gt;" style="edgeLabel;html=1;align=center;verticalAlign=middle;resizable=0;points=[];" vertex="1" connectable="0" parent="fI48gUcSMKQTvnjYPrtR-3">
          <mxGeometry x="-0.2572" relative="1" as="geometry">
            <mxPoint as="offset" />
          </mxGeometry>
        </mxCell>
        <mxCell id="fI48gUcSMKQTvnjYPrtR-1" value="Redireccionar a Autenticación con Google" style="rounded=1;whiteSpace=wrap;html=1;arcSize=50;" vertex="1" parent="1">
          <mxGeometry x="414" y="120" width="180" height="40" as="geometry" />
        </mxCell>
        <mxCell id="fI48gUcSMKQTvnjYPrtR-7" value="Rellenar formulario" style="rounded=1;whiteSpace=wrap;html=1;arcSize=50;" vertex="1" parent="1">
          <mxGeometry x="340" y="200" width="131" height="40" as="geometry" />
        </mxCell>
        <mxCell id="fI48gUcSMKQTvnjYPrtR-17" style="rounded=0;orthogonalLoop=1;jettySize=auto;html=1;exitX=1;exitY=0.5;exitDx=0;exitDy=0;entryX=0;entryY=0.5;entryDx=0;entryDy=0;dashed=1;" edge="1" parent="1" source="fI48gUcSMKQTvnjYPrtR-10" target="fI48gUcSMKQTvnjYPrtR-13">
          <mxGeometry relative="1" as="geometry" />
        </mxCell>
        <mxCell id="fI48gUcSMKQTvnjYPrtR-20" value="&lt;font style=&quot;font-size: 9px;&quot;&gt;include&lt;/font&gt;" style="edgeLabel;html=1;align=center;verticalAlign=middle;resizable=0;points=[];" vertex="1" connectable="0" parent="fI48gUcSMKQTvnjYPrtR-17">
          <mxGeometry x="-0.211" relative="1" as="geometry">
            <mxPoint as="offset" />
          </mxGeometry>
        </mxCell>
        <mxCell id="fI48gUcSMKQTvnjYPrtR-18" style="rounded=0;orthogonalLoop=1;jettySize=auto;html=1;exitX=0.75;exitY=1;exitDx=0;exitDy=0;entryX=0;entryY=0.5;entryDx=0;entryDy=0;edgeStyle=orthogonalEdgeStyle;dashed=1;" edge="1" parent="1" source="fI48gUcSMKQTvnjYPrtR-10" target="fI48gUcSMKQTvnjYPrtR-16">
          <mxGeometry relative="1" as="geometry" />
        </mxCell>
        <mxCell id="fI48gUcSMKQTvnjYPrtR-21" value="&lt;font style=&quot;font-size: 9px;&quot;&gt;include&lt;/font&gt;" style="edgeLabel;html=1;align=center;verticalAlign=middle;resizable=0;points=[];" vertex="1" connectable="0" parent="fI48gUcSMKQTvnjYPrtR-18">
          <mxGeometry x="0.0338" y="-1" relative="1" as="geometry">
            <mxPoint as="offset" />
          </mxGeometry>
        </mxCell>
        <mxCell id="fI48gUcSMKQTvnjYPrtR-10" value="Rellenar formulario de restauración de la contraseña" style="rounded=1;whiteSpace=wrap;html=1;arcSize=50;" vertex="1" parent="1">
          <mxGeometry x="220.5" y="325" width="181" height="40" as="geometry" />
        </mxCell>
        <mxCell id="fI48gUcSMKQTvnjYPrtR-11" value="" style="endArrow=none;html=1;rounded=0;entryX=0;entryY=0.5;entryDx=0;entryDy=0;" edge="1" parent="1" source="zdS7Bi_oB9-ug5V27CZl-1" target="fI48gUcSMKQTvnjYPrtR-7">
          <mxGeometry width="50" height="50" relative="1" as="geometry">
            <mxPoint x="400" y="320" as="sourcePoint" />
            <mxPoint x="450" y="270" as="targetPoint" />
          </mxGeometry>
        </mxCell>
        <mxCell id="fI48gUcSMKQTvnjYPrtR-12" value="" style="endArrow=none;html=1;rounded=0;entryX=0.25;entryY=0;entryDx=0;entryDy=0;" edge="1" parent="1" source="zdS7Bi_oB9-ug5V27CZl-1" target="fI48gUcSMKQTvnjYPrtR-10">
          <mxGeometry width="50" height="50" relative="1" as="geometry">
            <mxPoint x="400" y="320" as="sourcePoint" />
            <mxPoint x="450" y="270" as="targetPoint" />
          </mxGeometry>
        </mxCell>
        <mxCell id="fI48gUcSMKQTvnjYPrtR-13" value="Validar Datos" style="rounded=1;whiteSpace=wrap;html=1;arcSize=50;" vertex="1" parent="1">
          <mxGeometry x="477" y="330" width="125" height="30" as="geometry" />
        </mxCell>
        <mxCell id="fI48gUcSMKQTvnjYPrtR-16" value="Redireccionar a inicio de sesion&amp;nbsp;" style="rounded=1;whiteSpace=wrap;html=1;arcSize=50;" vertex="1" parent="1">
          <mxGeometry x="475" y="370" width="129" height="40" as="geometry" />
        </mxCell>
        <mxCell id="fI48gUcSMKQTvnjYPrtR-22" value="Sistema" style="shape=umlActor;verticalLabelPosition=bottom;verticalAlign=top;html=1;outlineConnect=0;" vertex="1" parent="1">
          <mxGeometry x="670" y="255" width="30" height="60" as="geometry" />
        </mxCell>
        <mxCell id="fI48gUcSMKQTvnjYPrtR-24" value="" style="endArrow=none;html=1;rounded=0;exitX=1;exitY=0.5;exitDx=0;exitDy=0;" edge="1" parent="1" source="zdS7Bi_oB9-ug5V27CZl-5" target="fI48gUcSMKQTvnjYPrtR-22">
          <mxGeometry width="50" height="50" relative="1" as="geometry">
            <mxPoint x="630" y="310" as="sourcePoint" />
            <mxPoint x="680" y="260" as="targetPoint" />
          </mxGeometry>
        </mxCell>
        <mxCell id="fI48gUcSMKQTvnjYPrtR-25" value="" style="endArrow=none;html=1;rounded=0;exitX=0.871;exitY=1.004;exitDx=0;exitDy=0;exitPerimeter=0;" edge="1" parent="1" source="fI48gUcSMKQTvnjYPrtR-1" target="fI48gUcSMKQTvnjYPrtR-22">
          <mxGeometry width="50" height="50" relative="1" as="geometry">
            <mxPoint x="650" y="220" as="sourcePoint" />
            <mxPoint x="700" y="170" as="targetPoint" />
          </mxGeometry>
        </mxCell>
        <mxCell id="fI48gUcSMKQTvnjYPrtR-26" value="" style="endArrow=none;html=1;rounded=0;exitX=1;exitY=0.5;exitDx=0;exitDy=0;" edge="1" parent="1" source="fI48gUcSMKQTvnjYPrtR-13" target="fI48gUcSMKQTvnjYPrtR-22">
          <mxGeometry width="50" height="50" relative="1" as="geometry">
            <mxPoint x="640" y="350" as="sourcePoint" />
            <mxPoint x="690" y="300" as="targetPoint" />
          </mxGeometry>
        </mxCell>
        <mxCell id="fI48gUcSMKQTvnjYPrtR-27" value="" style="endArrow=none;html=1;rounded=0;exitX=1;exitY=0.5;exitDx=0;exitDy=0;" edge="1" parent="1" source="fI48gUcSMKQTvnjYPrtR-16" target="fI48gUcSMKQTvnjYPrtR-22">
          <mxGeometry width="50" height="50" relative="1" as="geometry">
            <mxPoint x="650" y="390" as="sourcePoint" />
            <mxPoint x="700" y="340" as="targetPoint" />
          </mxGeometry>
        </mxCell>
      </root>
    </mxGraphModel>
  </diagram>
</mxfile>
